<?xml version="1.0" encoding="UTF-8"?>
<svg xmlns="http://www.w3.org/2000/svg" viewBox="0 0 1280 720" role="img" aria-labelledby="title">
  <title id="title">A Courses Store</title>
  <rect width="1280" height="720" fill="#14532D"/>
  <rect x="0" y="0" width="18" height="720" fill="#86EFAC"/>
  <text x="72" y="64" fill="#CBD5E1" font-family="ui-sans-serif, system-ui, sans-serif" font-size="28" font-weight="700" letter-spacing="4">WEB DEV · CHAPTER 4</text>
  
  <g transform="translate(70 90)">
    <rect width="150" height="280" rx="18" fill="#111827"/>
    <rect x="22" y="28" width="106" height="14" rx="4" fill="#F8FAFC"/>
    <rect x="22" y="62" width="86" height="10" rx="4" fill="#94A3B8"/>
    <rect x="22" y="88" width="70" height="10" rx="4" fill="#64748B"/>
    <rect x="22" y="114" width="78" height="10" rx="4" fill="#64748B"/>
    <rect x="22" y="140" width="64" height="10" rx="4" fill="#475569"/>
    <rect x="180" y="0" width="430" height="280" rx="18" fill="#fff" stroke="#0F172A" stroke-width="8"/>
    <rect x="208" y="32" width="200" height="16" rx="6" fill="#0F172A"/>
    <rect x="208" y="68" width="370" height="12" rx="6" fill="#94A3B8"/>
    <rect x="208" y="96" width="330" height="12" rx="6" fill="#CBD5E1"/>
    <rect x="208" y="140" width="150" height="100" rx="12" fill="#E2E8F0"/>
    <rect x="372" y="140" width="150" height="100" rx="12" fill="#E2E8F0"/>
  </g>
  <text x="72" y="640" fill="#F8FAFC" font-family="ui-sans-serif, system-ui, sans-serif" font-size="56" font-weight="800">A Courses Store</text>
</svg>
